<svg id="visual" viewBox="0 0 900 600" width="900" height="600" xmlns="http://www.w3.org/2000/svg" xmlns:xlink="http://www.w3.org/1999/xlink" version="1.1"><path d="M0 540L21.5 536.3C43 532.7 86 525.3 128.8 524.3C171.7 523.3 214.3 528.7 257.2 536.3C300 544 343 554 385.8 554.7C428.7 555.3 471.3 546.7 514.2 543C557 539.3 600 540.7 642.8 543.5C685.7 546.3 728.3 550.7 771.2 550.3C814 550 857 545 878.5 542.5L900 540L900 601L878.5 601C857 601 814 601 771.2 601C728.3 601 685.7 601 642.8 601C600 601 557 601 514.2 601C471.3 601 428.7 601 385.8 601C343 601 300 601 257.2 601C214.3 601 171.7 601 128.8 601C86 601 43 601 21.5 601L0 601Z" fill="#ffffff" stroke-linecap="round" stroke-linejoin="miter"></path></svg>