<svg id="visual" viewBox="0 0 960 540" width="960" height="540" xmlns="http://www.w3.org/2000/svg" xmlns:xlink="http://www.w3.org/1999/xlink" version="1.1"><path d="M0 38L22.8 42.7C45.7 47.3 91.3 56.7 137 56.3C182.7 56 228.3 46 274 42.8C319.7 39.7 365.3 43.3 411.2 47.2C457 51 503 55 548.8 55.2C594.7 55.3 640.3 51.7 686 48.5C731.7 45.3 777.3 42.7 823 45.7C868.7 48.7 914.3 57.3 937.2 61.7L960 66L960 0L937.2 0C914.3 0 868.7 0 823 0C777.3 0 731.7 0 686 0C640.3 0 594.7 0 548.8 0C503 0 457 0 411.2 0C365.3 0 319.7 0 274 0C228.3 0 182.7 0 137 0C91.3 0 45.7 0 22.8 0L0 0Z" fill="#f49390" stroke-linecap="round" stroke-linejoin="miter"></path></svg>